<svg xmlns="http://www.w3.org/2000/svg" xmlns:xlink="http://www.w3.org/1999/xlink" viewBox="0 0 1000 1000" width="1000" height="1000" preserveAspectRatio="xMidYMid meet" style="width: 100%; height: 100%; transform: translate3d(0px, 0px, 0px); content-visibility: visible;" id="AC Installation"><defs><clipPath id="__lottie_element_14855"><rect width="1000" height="1000" x="0" y="0"/></clipPath></defs><g clip-path="url(#__lottie_element_14855)"><g transform="matrix(1,0,0,1,0,0)" opacity="1" style="display: block;"><g opacity="1" transform="matrix(1,0,0,1,491.093994140625,390.1340026855469)"><path fill="rgb(227,255,253)" fill-opacity="1" d=" M405.5169982910156,98.70999908447266 C387.8280029296875,4.810999870300293 412.21600341796875,-99.22200012207031 312.1130065917969,-153.86500549316406 C312.1130065917969,-153.86500549316406 312.1130065917969,-374.55499267578125 312.1130065917969,-374.55499267578125 C312.1130065917969,-374.55499267578125 -128.7220001220703,-374.55499267578125 -128.7220001220703,-374.55499267578125 C-128.7220001220703,-374.55499267578125 -128.7220001220703,-328.90301513671875 -128.7220001220703,-328.90301513671875 C-296.9989929199219,-300.3590087890625 -280.96099853515625,-91.5250015258789 -293.6549987792969,40.125 C-295.760986328125,66.5770034790039 -294.35198974609375,101.46600341796875 -316.79400634765625,119.21399688720703 C-337.05499267578125,135.23800659179688 -366.0780029296875,133.36199951171875 -388.2869873046875,146.09500122070312 C-464.4800109863281,192.48699951171875 -472.9469909667969,294.56500244140625 -454.6990051269531,374.55499267578125 C-454.6990051269531,374.55499267578125 459.4729919433594,373.6969909667969 459.4729919433594,373.6969909667969 C476.14300537109375,277.8949890136719 426.64898681640625,188.86000061035156 405.5169982910156,98.70999908447266z"/></g><g opacity="1" transform="matrix(1,0,0,1,494.8840026855469,865.1160278320312)"><path fill="rgb(131,211,201)" fill-opacity="1" d=" M-464.7909851074219,-124.86499786376953 C-461.8429870605469,92.44000244140625 -303.26800537109375,77.89099884033203 -135.09300231933594,76.56300354003906 C-65.00399780273438,81.3479995727539 -15.668000221252441,87.6240005493164 51.67100143432617,104.97200012207031 C199.54100036621094,144.99600219726562 321.8089904785156,132.57200622558594 404.8840026855469,-6.478000164031982 C432.27398681640625,-35.270999908447266 488.1610107421875,-75.86399841308594 454.1189880371094,-118.12000274658203 C454.1189880371094,-118.12000274658203 -464.7909851074219,-124.86499786376953 -464.7909851074219,-124.86499786376953z"/></g><g opacity="1" transform="matrix(1,0,0,1,651.0360107421875,715.7069702148438)"><path fill="rgb(62,155,142)" fill-opacity="1" d=" M158.89100646972656,73.01399993896484 C158.89100646972656,73.01399993896484 -158.89100646972656,73.01399993896484 -158.89100646972656,73.01399993896484 C-173.72500610351562,73.01399993896484 -185.75100708007812,60.987998962402344 -185.75100708007812,46.15399932861328 C-185.75100708007812,46.15399932861328 -185.75100708007812,-46.15399932861328 -185.75100708007812,-46.15399932861328 C-185.75100708007812,-60.987998962402344 -173.72500610351562,-73.01399993896484 -158.89100646972656,-73.01399993896484 C-158.89100646972656,-73.01399993896484 158.89100646972656,-73.01399993896484 158.89100646972656,-73.01399993896484 C173.72500610351562,-73.01399993896484 185.75100708007812,-60.987998962402344 185.75100708007812,-46.15399932861328 C185.75100708007812,-46.15399932861328 185.75100708007812,46.15399932861328 185.75100708007812,46.15399932861328 C185.75100708007812,60.987998962402344 173.72500610351562,73.01399993896484 158.89100646972656,73.01399993896484z"/></g><g opacity="1" transform="matrix(1,0,0,1,622.6840209960938,757.3159790039062)"><path fill="rgb(9,93,93)" fill-opacity="1" d=" M144.08900451660156,22.586999893188477 C144.08900451660156,22.586999893188477 -144.08900451660156,22.586999893188477 -144.08900451660156,22.586999893188477 C-144.08900451660156,22.586999893188477 -144.08900451660156,-22.586999893188477 -144.08900451660156,-22.586999893188477 C-144.08900451660156,-22.586999893188477 144.08900451660156,-22.586999893188477 144.08900451660156,-22.586999893188477 C144.08900451660156,-22.586999893188477 144.08900451660156,22.586999893188477 144.08900451660156,22.586999893188477z"/></g><g opacity="1" transform="matrix(1,0,0,1,623.072998046875,747.1909790039062)"><path fill="rgb(181,247,230)" fill-opacity="1" d=" M137.61000061035156,5.452000141143799 C137.61000061035156,5.452000141143799 -140.44200134277344,5.452000141143799 -140.44200134277344,5.452000141143799 C-140.44200134277344,5.452000141143799 -137.61000061035156,-5.452000141143799 -137.61000061035156,-5.452000141143799 C-137.61000061035156,-5.452000141143799 140.44200134277344,-5.452000141143799 140.44200134277344,-5.452000141143799 C140.44200134277344,-5.452000141143799 137.61000061035156,5.452000141143799 137.61000061035156,5.452000141143799z"/></g><g opacity="1" transform="matrix(1,0,0,1,623.072998046875,762.3790283203125)"><path fill="rgb(167,228,212)" fill-opacity="1" d=" M137.61000061035156,5.452000141143799 C137.61000061035156,5.452000141143799 -140.44200134277344,5.452000141143799 -140.44200134277344,5.452000141143799 C-140.44200134277344,5.452000141143799 -137.61000061035156,-5.452000141143799 -137.61000061035156,-5.452000141143799 C-137.61000061035156,-5.452000141143799 140.44200134277344,-5.452000141143799 140.44200134277344,-5.452000141143799 C140.44200134277344,-5.452000141143799 137.61000061035156,5.452000141143799 137.61000061035156,5.452000141143799z"/></g><g opacity="1" transform="matrix(1,0,0,1,785.2059936523438,675.5360107421875)"><path fill="rgb(181,247,230)" fill-opacity="1" d=" M4.933000087738037,0 C4.933000087738037,2.7239999771118164 2.7239999771118164,4.933000087738037 0,4.933000087738037 C-2.7239999771118164,4.933000087738037 -4.933000087738037,2.7239999771118164 -4.933000087738037,0 C-4.933000087738037,-2.7239999771118164 -2.7239999771118164,-4.933000087738037 0,-4.933000087738037 C2.7239999771118164,-4.933000087738037 4.933000087738037,-2.7239999771118164 4.933000087738037,0z"/></g><g opacity="1" transform="matrix(1,0,0,1,785.2059936523438,697.083984375)"><path fill="rgb(181,247,230)" fill-opacity="1" d=" M4.933000087738037,0 C4.933000087738037,2.7239999771118164 2.7239999771118164,4.933000087738037 0,4.933000087738037 C-2.7239999771118164,4.933000087738037 -4.933000087738037,2.7239999771118164 -4.933000087738037,0 C-4.933000087738037,-2.7239999771118164 -2.7239999771118164,-4.933000087738037 0,-4.933000087738037 C2.7239999771118164,-4.933000087738037 4.933000087738037,-2.7239999771118164 4.933000087738037,0z"/></g></g><g transform="matrix(0.9998894929885864,-0.014864377677440643,0.014864377677440643,0.9998894929885864,-1.89703369140625,4.480499267578125)" opacity="1" style="display: block;"><g opacity="1" transform="matrix(1,0,0,1,330.5849914550781,137.80499267578125)"><path fill="rgb(187,131,74)" fill-opacity="1" d=" M44.27000045776367,-10.5649995803833 C36.84700012207031,-12.062999725341797 29.4689998626709,-13.782999992370605 22.19499969482422,-15.88700008392334 C8.618000030517578,-19.81399917602539 -4.874000072479248,-24.816999435424805 -18.993000030517578,-25.45800018310547 C-25.801000595092773,-25.767000198364258 -32.9109992980957,-24.95800018310547 -38.71500015258789,-21.38599967956543 C-44.51900100708008,-17.81399917602539 -48.676998138427734,-10.980999946594238 -47.52899932861328,-4.263000011444092 C-46.67900085449219,0.7059999704360962 -43.180999755859375,4.828000068664551 -39.279998779296875,8.020999908447266 C-27.190000534057617,17.913999557495117 -10.986000061035156,20.889999389648438 4.526000022888184,22.736000061035156 C17.743999481201172,24.30900001525879 31.062999725341797,25.21500015258789 44.39099884033203,25.51799964904785 C48.12699890136719,13.817999839782715 49.527000427246094,2.078000068664551 44.27000045776367,-10.5649995803833z"/></g><g opacity="1" transform="matrix(1,0,0,1,420.9549865722656,145.33200073242188)"><path fill="rgb(232,170,155)" fill-opacity="1" d=" M46.0989990234375,7.623000144958496 C44.215999603271484,0.3720000088214874 43.40399932861328,-7.1570000648498535 43.698001861572266,-14.642999649047852 C13.842000007629395,-10.888999938964844 -16.604999542236328,-12.135000228881836 -46.0989990234375,-18.091999053955078 C-40.84199905395508,-5.448999881744385 -42.242000579833984,6.290999889373779 -45.97800064086914,17.990999221801758 C-14.923999786376953,18.697999954223633 16.167999267578125,15.753000259399414 46.0989990234375,7.623000144958496z"/></g></g><g transform="matrix(1,0,0,1,0,0)" opacity="1" style="display: block;"><g opacity="1" transform="matrix(1,0,0,1,330.593994140625,109.51699829101562)"><path fill="rgb(242,177,162)" fill-opacity="1" d=" M9.36400032043457,-25.913999557495117 C6.659999847412109,-25.36400032043457 3.9119999408721924,-20.461999893188477 -4.215000152587891,-14.920000076293945 C-13.46399974822998,-8.612000465393066 -23.216999053955078,-3.075000047683716 -32.71699905395508,2.8469998836517334 C-14.541000366210938,7.6620001792907715 2.818000078201294,15.550000190734863 18.402000427246094,26.07200050354004 C21.691999435424805,13.571000099182129 26.510000228881836,1.472000002861023 32.71699905395508,-9.866999626159668 C22.343000411987305,-8.788000106811523 19.584999084472656,-27.992000579833984 9.36400032043457,-25.913999557495117z"/></g><g opacity="1" transform="matrix(1,0,0,1,288.3590087890625,617.114013671875)"><path fill="rgb(19,76,76)" fill-opacity="1" d=" M-26.506000518798828,-24.26799964904785 C-18.68899917602539,-23.878999710083008 -10.871999740600586,-23.48900032043457 -3.055000066757202,-23.100000381469727 C-2.946000099182129,-14.28600025177002 1.3240000009536743,-5.61299991607666 8.243000030517578,-0.15199999511241913 C12.720999717712402,3.382999897003174 18.15399932861328,5.580999851226807 22.525999069213867,9.248000144958496 C26.898000717163086,12.914999961853027 30.163000106811523,18.945999145507812 28.106000900268555,24.26799964904785 C15.968999862670898,23.964000701904297 3.8320000171661377,23.65999984741211 -8.305000305175781,23.354999542236328 C-15.392999649047852,23.493999481201172 -18.59000015258789,21.2810001373291 -22.253000259399414,15.333999633789062 C-25.006999969482422,11.157999992370605 -27.83099937438965,6.802999973297119 -28.547000885009766,1.8519999980926514 C-29.80699920654297,-6.861999988555908 -24.30299949645996,-15.744000434875488 -26.506000518798828,-24.26799964904785z"/></g><g opacity="1" transform="matrix(1,0,0,1,264.3290100097656,434.2090148925781)"><path fill="rgb(10,91,91)" fill-opacity="1" d=" M-41.00699996948242,-163.906005859375 C-47.207000732421875,-133.47900390625 -44.887001037597656,-101.36299896240234 -34.37900161743164,-72.14299774169922 C-25.834999084472656,-48.382999420166016 -11.956999778747559,-26.295000076293945 -7.9029998779296875,-1.3730000257492065 C-5.392000198364258,14.0600004196167 -6.793000221252441,29.820999145507812 -7.702000141143799,45.430999755859375 C-9.958999633789062,84.1989974975586 -9.12600040435791,123.14700317382812 -5.211999893188477,161.7830047607422 C5.631999969482422,162.49099731445312 16.476999282836914,163.19900512695312 27.32200050354004,163.906005859375 C31.933000564575195,121.9739990234375 36.542999267578125,80.04199981689453 41.15399932861328,38.10900115966797 C43.042999267578125,20.927000045776367 44.935001373291016,3.6700000762939453 44.27199935913086,-13.602999687194824 C43.448001861572266,-35.08300018310547 38.689998626708984,-56.19599914550781 36.06100082397461,-77.53099822998047 C32.638999938964844,-105.30699920654297 32.84000015258789,-133.5279998779297 36.65999984741211,-161.2519989013672 C10.770999908447266,-162.13699340820312 -15.118000030517578,-163.02099609375 -41.00699996948242,-163.906005859375z"/></g><g opacity="1" transform="matrix(1,0,0,1,283.6080017089844,713.8779907226562)"><path fill="rgb(62,155,142)" fill-opacity="1" d=" M62.15399932861328,221.26600646972656 C62.15399932861328,221.26600646972656 52.70100021362305,220.53199768066406 52.70100021362305,220.53199768066406 C52.70100021362305,220.53199768066406 86.41300201416016,-211.78199768066406 86.41300201416016,-211.78199768066406 C86.41300201416016,-211.78199768066406 -53.43899917602539,-211.78199768066406 -53.43899917602539,-211.78199768066406 C-53.43899917602539,-211.78199768066406 -87.20999908447266,221.26600646972656 -87.20999908447266,221.26600646972656 C-87.20999908447266,221.26600646972656 -96.66300201416016,220.53199768066406 -96.66300201416016,220.53199768066406 C-96.66300201416016,220.53199768066406 -62.2130012512207,-221.26600646972656 -62.2130012512207,-221.26600646972656 C-62.2130012512207,-221.26600646972656 96.66300201416016,-221.26600646972656 96.66300201416016,-221.26600646972656 C96.66300201416016,-221.26600646972656 62.15399932861328,221.26600646972656 62.15399932861328,221.26600646972656z"/></g><g opacity="1" transform="matrix(1,0,0,1,288.114990234375,655.7030029296875)"><path fill="rgb(62,155,142)" fill-opacity="1" d=" M74.4010009765625,4.742000102996826 C74.4010009765625,4.742000102996826 -74.4010009765625,4.742000102996826 -74.4010009765625,4.742000102996826 C-74.4010009765625,4.742000102996826 -74.4010009765625,-4.742000102996826 -74.4010009765625,-4.742000102996826 C-74.4010009765625,-4.742000102996826 74.4010009765625,-4.742000102996826 74.4010009765625,-4.742000102996826 C74.4010009765625,-4.742000102996826 74.4010009765625,4.742000102996826 74.4010009765625,4.742000102996826z"/></g><g opacity="1" transform="matrix(1,0,0,1,295.781005859375,557.4349975585938)"><path fill="rgb(62,155,142)" fill-opacity="1" d=" M74.4010009765625,4.742000102996826 C74.4010009765625,4.742000102996826 -74.4010009765625,4.742000102996826 -74.4010009765625,4.742000102996826 C-74.4010009765625,4.742000102996826 -74.4010009765625,-4.742000102996826 -74.4010009765625,-4.742000102996826 C-74.4010009765625,-4.742000102996826 74.4010009765625,-4.742000102996826 74.4010009765625,-4.742000102996826 C74.4010009765625,-4.742000102996826 74.4010009765625,4.742000102996826 74.4010009765625,4.742000102996826z"/></g><g opacity="1" transform="matrix(1,0,0,1,280.2330017089844,756.7760009765625)"><path fill="rgb(62,155,142)" fill-opacity="1" d=" M74.4010009765625,4.742000102996826 C74.4010009765625,4.742000102996826 -74.4010009765625,4.742000102996826 -74.4010009765625,4.742000102996826 C-74.4010009765625,4.742000102996826 -74.4010009765625,-4.742000102996826 -74.4010009765625,-4.742000102996826 C-74.4010009765625,-4.742000102996826 74.4010009765625,-4.742000102996826 74.4010009765625,-4.742000102996826 C74.4010009765625,-4.742000102996826 74.4010009765625,4.742000102996826 74.4010009765625,4.742000102996826z"/></g><g opacity="1" transform="matrix(1,0,0,1,272.35198974609375,857.8489990234375)"><path fill="rgb(62,155,142)" fill-opacity="1" d=" M74.4010009765625,4.742000102996826 C74.4010009765625,4.742000102996826 -74.4010009765625,4.742000102996826 -74.4010009765625,4.742000102996826 C-74.4010009765625,4.742000102996826 -74.4010009765625,-4.742000102996826 -74.4010009765625,-4.742000102996826 C-74.4010009765625,-4.742000102996826 74.4010009765625,-4.742000102996826 74.4010009765625,-4.742000102996826 C74.4010009765625,-4.742000102996826 74.4010009765625,4.742000102996826 74.4010009765625,4.742000102996826z"/></g><g opacity="1" transform="matrix(1,0,0,1,328.1099853515625,695.3660278320312)"><path fill="rgb(62,155,142)" fill-opacity="1" d=" M87.23500061035156,202.75399780273438 C87.23500061035156,202.75399780273438 53.487998962402344,-193.27000427246094 53.487998962402344,-193.27000427246094 C53.487998962402344,-193.27000427246094 -86.35800170898438,-193.27000427246094 -86.35800170898438,-193.27000427246094 C-86.35800170898438,-193.27000427246094 -52.68199920654297,201.9510040283203 -52.68199920654297,201.9510040283203 C-52.68199920654297,201.9510040283203 -62.12900161743164,202.75399780273438 -62.12900161743164,202.75399780273438 C-62.12900161743164,202.75399780273438 -96.68199920654297,-202.75399780273438 -96.68199920654297,-202.75399780273438 C-96.68199920654297,-202.75399780273438 62.20000076293945,-202.75399780273438 62.20000076293945,-202.75399780273438 C62.20000076293945,-202.75399780273438 96.68199920654297,201.9510040283203 96.68199920654297,201.9510040283203 C96.68199920654297,201.9510040283203 87.23500061035156,202.75399780273438 87.23500061035156,202.75399780273438z"/></g><g opacity="1" transform="matrix(1,0,0,1,323.62200927734375,642.2880249023438)"><path fill="rgb(62,155,142)" fill-opacity="1" d=" M74.4010009765625,4.742000102996826 C74.4010009765625,4.742000102996826 -74.4010009765625,4.742000102996826 -74.4010009765625,4.742000102996826 C-74.4010009765625,4.742000102996826 -74.4010009765625,-4.742000102996826 -74.4010009765625,-4.742000102996826 C-74.4010009765625,-4.742000102996826 74.4010009765625,-4.742000102996826 74.4010009765625,-4.742000102996826 C74.4010009765625,-4.742000102996826 74.4010009765625,4.742000102996826 74.4010009765625,4.742000102996826z"/></g><g opacity="1" transform="matrix(1,0,0,1,315.9590148925781,552.3480224609375)"><path fill="rgb(62,155,142)" fill-opacity="1" d=" M74.4010009765625,4.742000102996826 C74.4010009765625,4.742000102996826 -74.4010009765625,4.742000102996826 -74.4010009765625,4.742000102996826 C-74.4010009765625,4.742000102996826 -74.4010009765625,-4.742000102996826 -74.4010009765625,-4.742000102996826 C-74.4010009765625,-4.742000102996826 74.4010009765625,-4.742000102996826 74.4010009765625,-4.742000102996826 C74.4010009765625,-4.742000102996826 74.4010009765625,4.742000102996826 74.4010009765625,4.742000102996826z"/></g><g opacity="1" transform="matrix(1,0,0,1,331.5050048828125,734.7979736328125)"><path fill="rgb(62,155,142)" fill-opacity="1" d=" M74.40299987792969,4.742000102996826 C74.40299987792969,4.742000102996826 -74.40299987792969,4.742000102996826 -74.40299987792969,4.742000102996826 C-74.40299987792969,4.742000102996826 -74.40299987792969,-4.742000102996826 -74.40299987792969,-4.742000102996826 C-74.40299987792969,-4.742000102996826 74.40299987792969,-4.742000102996826 74.40299987792969,-4.742000102996826 C74.40299987792969,-4.742000102996826 74.40299987792969,4.742000102996826 74.40299987792969,4.742000102996826z"/></g><g opacity="1" transform="matrix(1,0,0,1,339.38800048828125,827.3070068359375)"><path fill="rgb(62,155,142)" fill-opacity="1" d=" M74.4010009765625,4.742000102996826 C74.4010009765625,4.742000102996826 -74.4010009765625,4.742000102996826 -74.4010009765625,4.742000102996826 C-74.4010009765625,4.742000102996826 -74.4010009765625,-4.742000102996826 -74.4010009765625,-4.742000102996826 C-74.4010009765625,-4.742000102996826 74.4010009765625,-4.742000102996826 74.4010009765625,-4.742000102996826 C74.4010009765625,-4.742000102996826 74.4010009765625,4.742000102996826 74.4010009765625,4.742000102996826z"/></g><g opacity="1" transform="matrix(1,0,0,1,320.72601318359375,631.02099609375)"><path fill="rgb(19,76,76)" fill-opacity="1" d=" M-32.87900161743164,9.729999542236328 C-32.91600036621094,1.1959999799728394 -31,-17.040000915527344 -23.415000915527344,-21.96299934387207 C-15.20199966430664,-27.084999084472656 -5.521999835968018,-20.200000762939453 3.2060000896453857,-20.965999603271484 C1.8480000495910645,-14.795999526977539 5.383999824523926,-8.505000114440918 9.972000122070312,-4.163000106811523 C14.5600004196167,0.18000000715255737 20.222999572753906,3.23799991607666 24.944000244140625,7.435999870300293 C29.665000915527344,11.633999824523926 33.55699920654297,17.60300064086914 32.779998779296875,23.87299919128418 C14.532999992370605,23.400999069213867 -3.7130000591278076,22.93000030517578 -21.959999084472656,22.45800018310547 C-24.035999298095703,22.40399932861328 -26.19700050354004,22.32900047302246 -28.0310001373291,21.35700035095215 C-31.93400001525879,19.288000106811523 -32.8390007019043,14.147000312805176 -32.87900161743164,9.729999542236328z"/></g><g opacity="1" transform="matrix(1,0,0,1,295.9219970703125,441.3420104980469)"><path fill="rgb(12,114,114)" fill-opacity="1" d=" M24.513999938964844,17.464000701904297 C-0.2800000011920929,62.803001403808594 14.809000015258789,121.17900085449219 -6.505000114440918,168.2550048828125 C8.425000190734863,172.1999969482422 23.791000366210938,174.4929962158203 39.222999572753906,175.0800018310547 C46.323001861572266,135.62100219726562 56.387001037597656,96.69499969482422 69.30400085449219,58.73899841308594 C87.46700286865234,10.319999694824219 89.34600067138672,-18.104999542236328 56.84700012207031,-60.823001861572266 C32.28099822998047,-92.89199829101562 -3.8299999237060547,-127.97000122070312 5.15500020980835,-171.906005859375 C-17.4060001373291,-172.9320068359375 -39.96699905395508,-173.95700073242188 -62.52799987792969,-174.98300170898438 C-66.99700164794922,-175.18699645996094 -71.80699920654297,-175.30099487304688 -75.53500366210938,-172.82899475097656 C-80.21299743652344,-169.72799682617188 -81.68399810791016,-163.5749969482422 -82.13200378417969,-157.97999572753906 C-85.89600372314453,-91.6259994506836 -18.513999938964844,-54.64699935913086 21.93600082397461,-12.444999694824219 C32.375999450683594,-1.6180000305175781 32.106998443603516,4.88100004196167 24.513999938964844,17.464000701904297z"/></g><g opacity="1" transform="matrix(1,0,0,1,326.4129943847656,116.71299743652344)"><path fill="rgb(158,110,62)" fill-opacity="1" d=" M-16.97599983215332,-15.553000450134277 C-14.230999946594238,-16.788000106811523 -11.043999671936035,-16.131000518798828 -8.126999855041504,-15.390999794006348 C0.04800000041723251,-13.3149995803833 8.28600025177002,-10.63700008392334 14.944999694824219,-5.461999893188477 C21.604999542236328,-0.28700000047683716 26.486000061035156,7.835999965667725 25.81999969482422,16.243000030517578 C12.625,2.002000093460083 -6.4710001945495605,-6.59499979019165 -25.8799991607666,-7.0329999923706055 C-22.349000930786133,-9.199000358581543 -20.753999710083008,-13.854000091552734 -16.97599983215332,-15.553000450134277z"/></g><g opacity="1" transform="matrix(1,0,0,1,282.56298828125,198.91000366210938)"><path fill="rgb(243,170,96)" fill-opacity="1" d=" M33.3650016784668,-91.85199737548828 C15.079000473022461,-93.19999694824219 -1.9429999589920044,-82.33300018310547 -15.142999649047852,-69.60600280761719 C-56.62699890136719,-29.63800048828125 -73.21199798583984,29.32699966430664 -75.06700134277344,85.63099670410156 C-41.86899948120117,91.44300079345703 -7.974999904632568,93.26799774169922 25.655000686645508,91.05500030517578 C26.972000122070312,64.31400299072266 35.0099983215332,37.93000030517578 48.827999114990234,14.996999740600586 C57.63399887084961,0.382999986410141 68.91300201416016,-13.237000465393066 73.21099853515625,-29.749000549316406 C81.03399658203125,-57.689998626708984 63.44599914550781,-89.44400024414062 33.3650016784668,-91.85199737548828z"/></g><g opacity="1" transform="matrix(1,0,0,1,316.06298828125,174.2689971923828)"><path fill="rgb(187,131,74)" fill-opacity="1" d=" M-12.493000030517578,-33.391998291015625 C-18.76300048828125,-33.16999816894531 -22.482999801635742,-27.777000427246094 -23.677000045776367,-22.368999481201172 C-28.82900047302246,-3.424999952316284 -24.02400016784668,17.06999969482422 -10.956999778747559,33.391998291015625 C1.2640000581741333,23.145000457763672 13.484999656677246,12.89900016784668 25.70599937438965,2.6530001163482666 C16.88599967956543,-2.8929998874664307 9.515000343322754,-9.91100025177002 4.203999996185303,-17.820999145507812 C0.984000027179718,-23.000999450683594 -2.9509999752044678,-28.7189998626709 -9.859999656677246,-29.05699920654297 C-9.859999656677246,-29.05699920654297 -12.493000030517578,-33.391998291015625 -12.493000030517578,-33.391998291015625z"/></g><g opacity="1" transform="matrix(1,0,0,1,262.60400390625,188.7239990234375)"><path fill="rgb(10,95,95)" fill-opacity="1" d=" M23.093000411987305,-73.18800354003906 C-22.604999542236328,-40.80699920654297 -24.65399932861328,21.979999542236328 -22.566999435424805,73.18800354003906 C-20.165000915527344,71.375 -17.325000762939453,70.1449966430664 -14.359999656677246,69.63099670410156 C-18.49799919128418,21.047000885009766 -12.63599967956543,-19.031999588012695 12.319000244140625,-60.92100143432617 C12.319000244140625,-60.92100143432617 23.093000411987305,-73.18800354003906 23.093000411987305,-73.18800354003906z"/></g><g opacity="1" transform="matrix(1,0,0,1,276.65301513671875,240.6009979248047)"><path fill="rgb(12,114,114)" fill-opacity="1" d=" M46.17100143432617,-48.73699951171875 C22.284000396728516,-3.3389999866485596 -15.465999603271484,21.87299919128418 -66.375,6.171999931335449 C-69.35099792480469,21.742000579833984 -68.5510025024414,28.0939998626709 -69.15699768066406,43.93899917602539 C-35.95899963378906,49.750999450683594 -2.065000057220459,51.57600021362305 31.565000534057617,49.362998962402344 C32.88199996948242,22.621999740600586 40.91999816894531,-3.76200008392334 54.737998962402344,-26.69499969482422 C59.32400131225586,-34.305999755859375 64.56400299072266,-41.65599822998047 69.15699768066406,-49.277000427246094 C61.112998962402344,-51.79999923706055 50.55799865722656,-48.73699951171875 46.17100143432617,-48.73699951171875z"/></g><g opacity="1" transform="matrix(1,0,0,1,285.24200439453125,162.38299560546875)"><path fill="rgb(10,95,95)" fill-opacity="1" d=" M-24.62700080871582,-19.28700065612793 C-16.297000885009766,-27.415000915527344 -7.392000198364258,-35.09700012207031 2.7939999103546143,-40.72700119018555 C22.535999298095703,-52.35599899291992 51.391998291015625,-53.54100036621094 66.49400329589844,-34.0989990234375 C54.50199890136719,-44.67599868774414 36.40700149536133,-46.0989990234375 21.204999923706055,-41.143001556396484 C-13.654999732971191,-29.05500030517578 -49.72100067138672,17.018999099731445 -66.49400329589844,49.154998779296875 C-61.323001861572266,22.486000061035156 -44.07099914550781,-0.3160000145435333 -24.62700080871582,-19.28700065612793z"/></g></g><g transform="matrix(1,0,0,1,0.97998046875,0)" opacity="1" style="display: block;"><g opacity="1" transform="matrix(1,0,0,1,722.114013671875,137.83999633789062)"><path fill="rgb(9,93,93)" fill-opacity="1" d=" M11.14799976348877,94.33599853515625 C11.14799976348877,94.33599853515625 -11.14799976348877,94.33599853515625 -11.14799976348877,94.33599853515625 C-11.14799976348877,94.33599853515625 -11.14799976348877,-94.33599853515625 -11.14799976348877,-94.33599853515625 C-11.14799976348877,-94.33599853515625 11.14799976348877,-94.33599853515625 11.14799976348877,-94.33599853515625 C11.14799976348877,-94.33599853515625 11.14799976348877,94.33599853515625 11.14799976348877,94.33599853515625z"/></g><g opacity="1" transform="matrix(1,0,0,1,575.7550048828125,137.83999633789062)"><path fill="rgb(131,211,201)" fill-opacity="1" d=" M136.87100219726562,94.33599853515625 C136.87100219726562,94.33599853515625 -136.87100219726562,94.33599853515625 -136.87100219726562,94.33599853515625 C-136.87100219726562,94.33599853515625 -136.87100219726562,-94.33599853515625 -136.87100219726562,-94.33599853515625 C-136.87100219726562,-94.33599853515625 136.87100219726562,-94.33599853515625 136.87100219726562,-94.33599853515625 C136.87100219726562,-94.33599853515625 136.87100219726562,94.33599853515625 136.87100219726562,94.33599853515625z"/></g><g opacity="1" transform="matrix(1,0,0,1,488.3689880371094,75.72200012207031)"><path fill="rgb(9,93,93)" fill-opacity="1" d=" M28.847999572753906,0 C28.847999572753906,1.2799999713897705 27.81100082397461,2.315999984741211 26.531999588012695,2.315999984741211 C26.531999588012695,2.315999984741211 -26.531999588012695,2.315999984741211 -26.531999588012695,2.315999984741211 C-27.81100082397461,2.315999984741211 -28.847999572753906,1.2799999713897705 -28.847999572753906,0 C-28.847999572753906,0 -28.847999572753906,0 -28.847999572753906,0 C-28.847999572753906,-1.2790000438690186 -27.81100082397461,-2.315999984741211 -26.531999588012695,-2.315999984741211 C-26.531999588012695,-2.315999984741211 26.531999588012695,-2.315999984741211 26.531999588012695,-2.315999984741211 C27.81100082397461,-2.315999984741211 28.847999572753906,-1.2790000438690186 28.847999572753906,0 C28.847999572753906,0 28.847999572753906,0 28.847999572753906,0z"/></g><g opacity="1" transform="matrix(1,0,0,1,488.3689880371094,88.35600280761719)"><path fill="rgb(9,93,93)" fill-opacity="1" d=" M28.847999572753906,0 C28.847999572753906,1.2790000438690186 27.81100082397461,2.315999984741211 26.531999588012695,2.315999984741211 C26.531999588012695,2.315999984741211 -26.531999588012695,2.315999984741211 -26.531999588012695,2.315999984741211 C-27.81100082397461,2.315999984741211 -28.847999572753906,1.2790000438690186 -28.847999572753906,0 C-28.847999572753906,0 -28.847999572753906,0 -28.847999572753906,0 C-28.847999572753906,-1.2799999713897705 -27.81100082397461,-2.315999984741211 -26.531999588012695,-2.315999984741211 C-26.531999588012695,-2.315999984741211 26.531999588012695,-2.315999984741211 26.531999588012695,-2.315999984741211 C27.81100082397461,-2.315999984741211 28.847999572753906,-1.2799999713897705 28.847999572753906,0 C28.847999572753906,0 28.847999572753906,0 28.847999572753906,0z"/></g><g opacity="1" transform="matrix(1,0,0,1,488.3689880371094,100.98999786376953)"><path fill="rgb(9,93,93)" fill-opacity="1" d=" M28.847999572753906,0 C28.847999572753906,1.2790000438690186 27.81100082397461,2.315999984741211 26.531999588012695,2.315999984741211 C26.531999588012695,2.315999984741211 -26.531999588012695,2.315999984741211 -26.531999588012695,2.315999984741211 C-27.81100082397461,2.315999984741211 -28.847999572753906,1.2790000438690186 -28.847999572753906,0 C-28.847999572753906,0 -28.847999572753906,0 -28.847999572753906,0 C-28.847999572753906,-1.2790000438690186 -27.81100082397461,-2.315999984741211 -26.531999588012695,-2.315999984741211 C-26.531999588012695,-2.315999984741211 26.531999588012695,-2.315999984741211 26.531999588012695,-2.315999984741211 C27.81100082397461,-2.315999984741211 28.847999572753906,-1.2790000438690186 28.847999572753906,0 C28.847999572753906,0 28.847999572753906,0 28.847999572753906,0z"/></g><g opacity="1" transform="matrix(1,0,0,1,488.3689880371094,113.6240005493164)"><path fill="rgb(9,93,93)" fill-opacity="1" d=" M28.847999572753906,0 C28.847999572753906,1.2799999713897705 27.81100082397461,2.315999984741211 26.531999588012695,2.315999984741211 C26.531999588012695,2.315999984741211 -26.531999588012695,2.315999984741211 -26.531999588012695,2.315999984741211 C-27.81100082397461,2.315999984741211 -28.847999572753906,1.2799999713897705 -28.847999572753906,0 C-28.847999572753906,0 -28.847999572753906,0 -28.847999572753906,0 C-28.847999572753906,-1.2790000438690186 -27.81100082397461,-2.315999984741211 -26.531999588012695,-2.315999984741211 C-26.531999588012695,-2.315999984741211 26.531999588012695,-2.315999984741211 26.531999588012695,-2.315999984741211 C27.81100082397461,-2.315999984741211 28.847999572753906,-1.2790000438690186 28.847999572753906,0 C28.847999572753906,0 28.847999572753906,0 28.847999572753906,0z"/></g><g opacity="1" transform="matrix(1,0,0,1,488.3689880371094,126.25800323486328)"><path fill="rgb(9,93,93)" fill-opacity="1" d=" M28.847999572753906,0 C28.847999572753906,1.2790000438690186 27.81100082397461,2.315999984741211 26.531999588012695,2.315999984741211 C26.531999588012695,2.315999984741211 -26.531999588012695,2.315999984741211 -26.531999588012695,2.315999984741211 C-27.81100082397461,2.315999984741211 -28.847999572753906,1.2790000438690186 -28.847999572753906,0 C-28.847999572753906,0 -28.847999572753906,0 -28.847999572753906,0 C-28.847999572753906,-1.2799999713897705 -27.81100082397461,-2.315999984741211 -26.531999588012695,-2.315999984741211 C-26.531999588012695,-2.315999984741211 26.531999588012695,-2.315999984741211 26.531999588012695,-2.315999984741211 C27.81100082397461,-2.315999984741211 28.847999572753906,-1.2799999713897705 28.847999572753906,0 C28.847999572753906,0 28.847999572753906,0 28.847999572753906,0z"/></g><g opacity="1" transform="matrix(1,0,0,1,488.3689880371094,138.89300537109375)"><path fill="rgb(9,93,93)" fill-opacity="1" d=" M28.847999572753906,0 C28.847999572753906,1.2790000438690186 27.81100082397461,2.315999984741211 26.531999588012695,2.315999984741211 C26.531999588012695,2.315999984741211 -26.531999588012695,2.315999984741211 -26.531999588012695,2.315999984741211 C-27.81100082397461,2.315999984741211 -28.847999572753906,1.2790000438690186 -28.847999572753906,0 C-28.847999572753906,0 -28.847999572753906,0 -28.847999572753906,0 C-28.847999572753906,-1.2790000438690186 -27.81100082397461,-2.315999984741211 -26.531999588012695,-2.315999984741211 C-26.531999588012695,-2.315999984741211 26.531999588012695,-2.315999984741211 26.531999588012695,-2.315999984741211 C27.81100082397461,-2.315999984741211 28.847999572753906,-1.2790000438690186 28.847999572753906,0 C28.847999572753906,0 28.847999572753906,0 28.847999572753906,0z"/></g><g opacity="1" transform="matrix(1,0,0,1,488.3689880371094,151.52699279785156)"><path fill="rgb(9,93,93)" fill-opacity="1" d=" M28.847999572753906,0 C28.847999572753906,1.2799999713897705 27.81100082397461,2.315999984741211 26.531999588012695,2.315999984741211 C26.531999588012695,2.315999984741211 -26.531999588012695,2.315999984741211 -26.531999588012695,2.315999984741211 C-27.81100082397461,2.315999984741211 -28.847999572753906,1.2799999713897705 -28.847999572753906,0 C-28.847999572753906,0 -28.847999572753906,0 -28.847999572753906,0 C-28.847999572753906,-1.2790000438690186 -27.81100082397461,-2.315999984741211 -26.531999588012695,-2.315999984741211 C-26.531999588012695,-2.315999984741211 26.531999588012695,-2.315999984741211 26.531999588012695,-2.315999984741211 C27.81100082397461,-2.315999984741211 28.847999572753906,-1.2790000438690186 28.847999572753906,0 C28.847999572753906,0 28.847999572753906,0 28.847999572753906,0z"/></g><g opacity="1" transform="matrix(1,0,0,1,624.39697265625,135.10299682617188)"><path fill="rgb(62,155,142)" fill-opacity="1" d=" M70.96199798583984,0 C70.96199798583984,39.19200134277344 39.191001892089844,70.96199798583984 0,70.96199798583984 C-39.191001892089844,70.96199798583984 -70.96199798583984,39.19200134277344 -70.96199798583984,0 C-70.96199798583984,-39.191001892089844 -39.191001892089844,-70.96199798583984 0,-70.96199798583984 C39.191001892089844,-70.96199798583984 70.96199798583984,-39.191001892089844 70.96199798583984,0z"/></g><g opacity="1" transform="matrix(1,0,0,1,624.39697265625,135.10299682617188)"><path fill="rgb(9,93,93)" fill-opacity="1" d=" M65.12100219726562,0 C65.12100219726562,35.96500015258789 35.96500015258789,65.12100219726562 0,65.12100219726562 C-35.96500015258789,65.12100219726562 -65.12100219726562,35.96500015258789 -65.12100219726562,0 C-65.12100219726562,-35.96500015258789 -35.96500015258789,-65.12100219726562 0,-65.12100219726562 C35.96500015258789,-65.12100219726562 65.12100219726562,-35.96500015258789 65.12100219726562,0z"/></g><g opacity="1" transform="matrix(1,0,0,1,624.39697265625,135.1020050048828)"><path fill="rgb(131,211,201)" fill-opacity="1" d=" M-0.0010000000474974513,56.57699966430664 C-31.19499969482422,56.57699966430664 -56.57500076293945,31.19700050354004 -56.57500076293945,0 C-56.57500076293945,-31.19700050354004 -31.19499969482422,-56.57699966430664 -0.0010000000474974513,-56.57699966430664 C31.195999145507812,-56.57699966430664 56.57500076293945,-31.19700050354004 56.57500076293945,0 C56.57500076293945,31.19700050354004 31.195999145507812,56.57699966430664 -0.0010000000474974513,56.57699966430664z M-0.0010000000474974513,-53.41600036621094 C-29.452999114990234,-53.41600036621094 -53.41400146484375,-29.45199966430664 -53.41400146484375,0 C-53.41400146484375,29.45199966430664 -29.452999114990234,53.41600036621094 -0.0010000000474974513,53.41600036621094 C29.451000213623047,53.41600036621094 53.41400146484375,29.45199966430664 53.41400146484375,0 C53.41400146484375,-29.45199966430664 29.451000213623047,-53.41600036621094 -0.0010000000474974513,-53.41600036621094z"/></g><g opacity="1" transform="matrix(1,0,0,1,624.39599609375,135.1020050048828)"><path fill="rgb(131,211,201)" fill-opacity="1" d=" M0,43.33599853515625 C-23.895000457763672,43.33599853515625 -43.33599853515625,23.895000457763672 -43.33599853515625,0 C-43.33599853515625,-23.895000457763672 -23.895000457763672,-43.33599853515625 0,-43.33599853515625 C23.895000457763672,-43.33599853515625 43.33599853515625,-23.895000457763672 43.33599853515625,0 C43.33599853515625,23.895000457763672 23.895000457763672,43.33599853515625 0,43.33599853515625z M0,-40.17399978637695 C-22.150999069213867,-40.17399978637695 -40.17399978637695,-22.150999069213867 -40.17399978637695,0 C-40.17399978637695,22.150999069213867 -22.150999069213867,40.17399978637695 0,40.17399978637695 C22.150999069213867,40.17399978637695 40.17399978637695,22.150999069213867 40.17399978637695,0 C40.17399978637695,-22.150999069213867 22.150999069213867,-40.17399978637695 0,-40.17399978637695z"/></g><g opacity="1" transform="matrix(1,0,0,1,624.39697265625,135.10400390625)"><path fill="rgb(131,211,201)" fill-opacity="1" d=" M-0.0010000000474974513,28.53700065612793 C-15.737000465393066,28.53700065612793 -28.53700065612793,15.734000205993652 -28.53700065612793,-0.0010000000474974513 C-28.53700065612793,-15.737000465393066 -15.737000465393066,-28.53700065612793 -0.0010000000474974513,-28.53700065612793 C15.734000205993652,-28.53700065612793 28.53700065612793,-15.737000465393066 28.53700065612793,-0.0010000000474974513 C28.53700065612793,15.734000205993652 15.734000205993652,28.53700065612793 -0.0010000000474974513,28.53700065612793z M-0.0010000000474974513,-25.375 C-13.991999626159668,-25.375 -25.375,-13.991999626159668 -25.375,-0.0010000000474974513 C-25.375,13.994000434875488 -13.991999626159668,25.375 -0.0010000000474974513,25.375 C13.994000434875488,25.375 25.375,13.994000434875488 25.375,-0.0010000000474974513 C25.375,-13.991999626159668 13.994000434875488,-25.375 -0.0010000000474974513,-25.375z"/></g><g opacity="1" transform="matrix(1,0,0,1,624.39697265625,135.1020050048828)"><path fill="rgb(131,211,201)" fill-opacity="1" d=" M-0.0010000000474974513,15.29699993133545 C-8.4350004196167,15.29699993133545 -15.295999526977539,8.434000015258789 -15.295999526977539,0 C-15.295999526977539,-8.434000015258789 -8.4350004196167,-15.29699993133545 -0.0010000000474974513,-15.29699993133545 C8.432999610900879,-15.29699993133545 15.295999526977539,-8.434000015258789 15.295999526977539,0 C15.295999526977539,8.434000015258789 8.432999610900879,15.29699993133545 -0.0010000000474974513,15.29699993133545z M-0.0010000000474974513,-12.13599967956543 C-6.690999984741211,-12.13599967956543 -12.135000228881836,-6.692999839782715 -12.135000228881836,0 C-12.135000228881836,6.692999839782715 -6.690999984741211,12.13599967956543 -0.0010000000474974513,12.13599967956543 C6.691999912261963,12.13599967956543 12.135000228881836,6.692999839782715 12.135000228881836,0 C12.135000228881836,-6.692999839782715 6.691999912261963,-12.13599967956543 -0.0010000000474974513,-12.13599967956543z"/></g><g opacity="1" transform="matrix(1,0,0,1,728.2080078125,172.3730010986328)"><path fill="rgb(131,211,201)" fill-opacity="1" d=" M9.265000343322754,0 C9.265000343322754,9.071000099182129 5.117000102996826,16.423999786376953 0,16.423999786376953 C-5.117000102996826,16.423999786376953 -9.265000343322754,9.071000099182129 -9.265000343322754,0 C-9.265000343322754,-9.071000099182129 -5.117000102996826,-16.423999786376953 0,-16.423999786376953 C5.117000102996826,-16.423999786376953 9.265000343322754,-9.071000099182129 9.265000343322754,0z"/></g><g opacity="1" transform="matrix(1,0,0,1,756.635009765625,171.11000061035156)"><path fill="rgb(9,93,93)" fill-opacity="1" d=" M19.2549991607666,9.265000343322754 C19.2549991607666,9.265000343322754 -19.2549991607666,9.265000343322754 -19.2549991607666,9.265000343322754 C-24.320999145507812,9.265000343322754 -28.427000045776367,5.158999919891357 -28.427000045776367,0.09300000220537186 C-28.427000045776367,0.09300000220537186 -28.427000045776367,-0.09200000017881393 -28.427000045776367,-0.09200000017881393 C-28.427000045776367,-5.1579999923706055 -24.320999145507812,-9.265000343322754 -19.2549991607666,-9.265000343322754 C-19.2549991607666,-9.265000343322754 19.2549991607666,-9.265000343322754 19.2549991607666,-9.265000343322754 C24.320999145507812,-9.265000343322754 28.427000045776367,-5.1579999923706055 28.427000045776367,-0.09200000017881393 C28.427000045776367,-0.09200000017881393 28.427000045776367,0.09300000220537186 28.427000045776367,0.09300000220537186 C28.427000045776367,5.158999919891357 24.320999145507812,9.265000343322754 19.2549991607666,9.265000343322754z"/></g></g><g transform="matrix(0.9998694658279419,0.01615840569138527,-0.01615840569138527,0.9998694658279419,2.212860107421875,-5.1067962646484375)" opacity="1" style="display: block;"><g opacity="1" transform="matrix(1,0,0,1,327.9530029296875,154.3090057373047)"><path fill="rgb(243,170,96)" fill-opacity="1" d=" M32.84199905395508,8.187999725341797 C28.746999740600586,3.4809999465942383 25.108999252319336,-1.6180000305175781 22.118999481201172,-7.14300012588501 C17.764999389648438,-15.190999984741211 14.63599967956543,-24.113000869750977 8.38700008392334,-30.797000885009766 C3.11299991607666,-36.43899917602539 -4.428999900817871,-40.14899826049805 -12.151000022888184,-39.96099853515625 C-19.871999740600586,-39.77299880981445 -27.562000274658203,-35.34199905395508 -30.836999893188477,-28.347000122070312 C-33.62699890136719,-22.38800048828125 -33.08599853515625,-15.416999816894531 -31.73900032043457,-8.97599983215332 C-27.816999435424805,9.781000137329102 -17.42099952697754,26.606000900268555 -3.5739998817443848,39.96799850463867 C12.295999526977539,33.69599914550781 25.82699966430664,24.2189998626709 32.84199905395508,8.187999725341797z"/></g><g opacity="1" transform="matrix(1,0,0,1,428.83599853515625,194.80299377441406)"><path fill="rgb(242,177,162)" fill-opacity="1" d=" M104.18599700927734,3.385999917984009 C100.19300079345703,1.8650000095367432 95.76899719238281,1.972000002861023 91.5260009765625,2.4820001125335693 C87.28299713134766,2.990999937057495 83.06500244140625,3.881999969482422 78.79100036621094,3.8610000610351562 C82.43000030517578,1.562999963760376 86.76899719238281,0.3880000114440918 91.06999969482422,0.5370000004768372 C93.0780029296875,0.6069999933242798 95.08100128173828,0.9559999704360962 97.08399963378906,0.8069999814033508 C99.08699798583984,0.6589999794960022 101.1760025024414,-0.0860000029206276 102.33300018310547,-1.7280000448226929 C94.2030029296875,-3.953000068664551 85.42900085449219,-6.160999774932861 77.52100372314453,-3.24399995803833 C74.24299621582031,-2.0350000858306885 71.1760025024414,0.039000000804662704 67.68599700927734,0.20000000298023224 C68.16600036621094,-1.6749999523162842 68.6719970703125,-3.6059999465942383 69.8499984741211,-5.140999794006348 C70.85199737548828,-6.447000026702881 72.26899719238281,-7.36899995803833 73.40499877929688,-8.560999870300293 C74.54100036621094,-9.753000259399414 75.41799926757812,-11.435999870300293 74.94000244140625,-13.01200008392334 C74.81900024414062,-13.40999984741211 74.58499908447266,-13.810999870300293 74.19599914550781,-13.958000183105469 C73.73600006103516,-14.131999969482422 73.22899627685547,-13.901000022888184 72.802001953125,-13.656000137329102 C69.11499786376953,-11.543999671936035 66.33399963378906,-8.062000274658203 62.558998107910156,-6.111000061035156 C60.52899932861328,-5.061999797821045 58.150001525878906,-4.39900016784668 56.77000045776367,-2.578000068664551 C55.784000396728516,-1.2760000228881836 55.38199996948242,0.46399998664855957 54.38600158691406,1.6990000009536743 C54.374000549316406,1.555999994277954 54.36199951171875,1.4129999876022339 54.3489990234375,1.2699999809265137 C29.288000106811523,4.9019999504089355 3.309999942779541,5.114999771118164 -20.927000045776367,-2.2219998836517334 C-39.38399887084961,-7.809000015258789 -56.75,-18.176000595092773 -69.32099914550781,-32.625 C-76.06300354003906,-17.2189998626709 -89.06800079345703,-8.112000465393066 -104.31800079345703,-2.0840001106262207 C-98.34200286865234,3.683000087738037 -91.76499938964844,8.845000267028809 -84.66600036621094,13.088000297546387 C-61.75899887084961,26.77899932861328 -34.67499923706055,32.35499954223633 -7.988999843597412,32.61600112915039 C12.493000030517578,32.816001892089844 33.145999908447266,29.895999908447266 52.27000045776367,22.614999771118164 C53.21900177001953,23.010000228881836 54.11000061035156,23.558000564575195 55.04399871826172,24.006000518798828 C57.67499923706055,25.266000747680664 60.763999938964844,25.231000900268555 63.6150016784668,24.608999252319336 C66.46600341796875,23.988000869750977 69.16200256347656,22.81999969482422 71.9209976196289,21.871999740600586 C79.97899627685547,19.10099983215332 88.5459976196289,18.201000213623047 96.8290023803711,16.202999114990234 C97.90699768066406,15.942999839782715 99.04399871826172,15.628000259399414 99.79299926757812,14.809000015258789 C99.61699676513672,13.876999855041504 98.36900329589844,13.706999778747559 97.4209976196289,13.76099967956543 C91.7699966430664,14.083000183105469 86.12899780273438,14.557000160217285 80.50299835205078,15.180000305175781 C81.61199951171875,13.538999557495117 83.46199798583984,12.527000427246094 85.36799621582031,11.98799991607666 C87.27300262451172,11.447999954223633 89.26599884033203,11.324000358581543 91.23300170898438,11.09000015258789 C94.6719970703125,10.680000305175781 98.06999969482422,9.927000045776367 101.36000061035156,8.845000267028809 C102.0999984741211,8.60200023651123 102.9729995727539,8.166000366210938 102.98899841308594,7.386000156402588 C103.01100158691406,6.303999900817871 101.5009994506836,6.0279998779296875 100.4229965209961,6.124000072479248 C101.177001953125,5.642000198364258 102.14399719238281,5.678999900817871 102.99199676513672,5.395999908447266 C103.84100341796875,5.111000061035156 104.64099884033203,4.1570000648498535 104.18599700927734,3.385999917984009z"/></g></g><g transform="matrix(0.9999758005142212,0.006959845311939716,-0.006959845311939716,0.9999758005142212,0.7490234375,-2.4836654663085938)" opacity="1" style="display: block;"><g opacity="1" transform="matrix(1,0,0,1,362.30999755859375,83.55500030517578)"><path fill="rgb(242,177,162)" fill-opacity="1" d=" M28.75,-24.30699920654297 C26.01099967956543,-30.500999450683594 19.76300048828125,-34.472999572753906 13.347999572753906,-36.64699935913086 C-38.07699966430664,-51.67100143432617 -53.03300094604492,20.680999755859375 17.47800064086914,38.685001373291016 C22.655000686645508,24.195999145507812 26.625,9.274999618530273 29.33300018310547,-5.869999885559082 C30.43199920654297,-12.017000198364258 31.274999618530273,-18.59600067138672 28.75,-24.30699920654297z"/></g><g opacity="1" transform="matrix(1,0,0,1,368.60198974609375,66.56199645996094)"><path fill="rgb(16,47,48)" fill-opacity="1" d=" M10.168000221252441,-23.006999969482422 C-3.875999927520752,-29.045000076293945 -18.145999908447266,-29.926000595092773 -30,-20.27400016784668 C-30,-20.27400016784668 -31.97599983215332,-16.19099998474121 -31.97599983215332,-16.19099998474121 C-37.486000061035156,-14.645999908447266 -37.06999969482422,-12.043999671936035 -38.698001861572266,-6.558000087738037 C-41.981998443603516,4.624000072479248 -37.13800048828125,16.215999603271484 -37.62900161743164,27.54400062561035 C-33.37099838256836,26.687000274658203 -29.204999923706055,25.426000595092773 -25.15399932861328,23.863000869750977 C-18.820999145507812,24.80299949645996 -12.272000312805176,24.29199981689453 -6.203999996185303,22.243999481201172 C-6.671000003814697,19.322999954223633 -7.046000003814697,16.261999130249023 -6.300000190734863,13.444000244140625 C-5.368000030517578,9.100000381469727 -2.996999979019165,8.045999526977539 0.3400000035762787,7.797999858856201 C4.355999946594238,7.900000095367432 5.6620001792907715,12.520999908447266 5.361000061035156,16.07699966430664 C6.442999839782715,16.253999710083008 7.525000095367432,16.43000030517578 8.607000350952148,16.60700035095215 C8.24899959564209,11.111000061035156 9.241999626159668,5.565999984741211 11.336999893188477,0.4729999899864197 C13.184000015258789,0.4830000102519989 15.065999984741211,0.9660000205039978 16.916000366210938,1.253000020980835 C25.426000595092773,2.572999954223633 34.52299880981445,-1.0099999904632568 39.847999572753906,-7.7779998779296875 C28.929000854492188,-10.12399959564209 20.427000045776367,-18.59600067138672 10.168000221252441,-23.006999969482422z"/></g><g opacity="1" transform="matrix(1,0,0,1,384.6830139160156,89.1760025024414)"><path fill="rgb(16,47,48)" fill-opacity="1" d=" M1.3009999990463257,1.9630000591278076 C1.7259999513626099,1.2009999752044678 2.009999990463257,0.3449999988079071 2.0510001182556152,-0.5230000019073486 C2.3340001106262207,-1.9140000343322754 1.5169999599456787,-3.1730000972747803 0.2619999945163727,-3.3359999656677246 C-0.125,-3.3910000324249268 -0.5759999752044678,-3.305000066757202 -0.824999988079071,-2.9049999713897705 C-1.5219999551773071,-2.2639999389648438 -1.7879999876022339,-1.2380000352859497 -1.9630000591278076,-0.3449999988079071 C-2.0989999771118164,0.48100000619888306 -2.24399995803833,1.3880000114440918 -1.8650000095367432,2.134999990463257 C-1.6749999523162842,2.755000114440918 -1.0460000038146973,3.2119998931884766 -0.4259999990463257,3.2950000762939453 C0.4620000123977661,3.5940001010894775 0.9620000123977661,2.63100004196167 1.3009999990463257,1.9630000591278076z"/></g><g opacity="1" transform="matrix(1,0,0,1,384.68499755859375,78.9990005493164)"><path fill="rgb(16,47,48)" fill-opacity="1" d=" M5.375999927520752,-0.31200000643730164 C2.8459999561309814,-4.423999786376953 -3.6029999256134033,-1.1740000247955322 -5.447000026702881,1.4240000247955322 C-5.874000072479248,1.940999984741211 -5.3520002365112305,2.2860000133514404 -4.793000221252441,2.2669999599456787 C-2.2669999599456787,2.2960000038146973 0.21299999952316284,1.753000020980835 2.740999937057495,1.996999979019165 C3.2750000953674316,2.0480000972747803 3.818000078201294,2.134999990463257 4.334000110626221,2.0420000553131104 C5.370999813079834,1.8539999723434448 5.953000068664551,0.6240000128746033 5.375999927520752,-0.31200000643730164z"/></g></g><g transform="matrix(1,0,0,1,586.7050170898438,256.1809997558594)" opacity="1" style="display: block;"><g opacity="1" transform="matrix(1,0,0,1,0,0)"><path fill="rgb(62,155,142)" fill-opacity="1" d=" M191.61900329589844,-26.111000061035156 C191.61900329589844,-26.111000061035156 -191.61900329589844,-26.111000061035156 -191.61900329589844,-26.111000061035156 C-191.61900329589844,-26.111000061035156 -191.61900329589844,-11.791999816894531 -191.61900329589844,-11.791999816894531 C-191.61900329589844,-11.791999816894531 -169.72000122070312,-11.791999816894531 -169.72000122070312,-11.791999816894531 C-169.72000122070312,-11.791999816894531 -169.72000122070312,18.049999237060547 -169.72000122070312,18.049999237060547 C-169.72000122070312,22.50200080871582 -166.11099243164062,26.111000061035156 -161.65899658203125,26.111000061035156 C-161.65899658203125,26.111000061035156 -161.49600219726562,26.111000061035156 -161.49600219726562,26.111000061035156 C-157.04400634765625,26.111000061035156 -153.43600463867188,22.50200080871582 -153.43600463867188,18.049999237060547 C-153.43600463867188,18.049999237060547 -153.43600463867188,-11.791999816894531 -153.43600463867188,-11.791999816894531 C-153.43600463867188,-11.791999816894531 148.66299438476562,-11.791999816894531 148.66299438476562,-11.791999816894531 C148.66299438476562,-11.791999816894531 148.66299438476562,18.049999237060547 148.66299438476562,18.049999237060547 C148.66299438476562,22.50200080871582 152.27099609375,26.111000061035156 156.72300720214844,26.111000061035156 C156.72300720214844,26.111000061035156 156.88600158691406,26.111000061035156 156.88600158691406,26.111000061035156 C161.33799743652344,26.111000061035156 164.94700622558594,22.50200080871582 164.94700622558594,18.049999237060547 C164.94700622558594,18.049999237060547 164.94700622558594,-11.791999816894531 164.94700622558594,-11.791999816894531 C164.94700622558594,-11.791999816894531 191.61900329589844,-11.791999816894531 191.61900329589844,-11.791999816894531 C191.61900329589844,-11.791999816894531 191.61900329589844,-26.111000061035156 191.61900329589844,-26.111000061035156z"/></g></g><g transform="matrix(0.9995707869529724,0.029296593740582466,-0.029296593740582466,0.9995707869529724,12.02587890625,-19.21368408203125)" opacity="1" style="display: block;"><g opacity="1" transform="matrix(1,0,0,1,490.5639953613281,300.6659851074219)"><path fill="rgb(153,108,61)" fill-opacity="1" d=" M49.22800064086914,14.413999557495117 C34.013999938964844,4.872000217437744 18.801000595092773,-4.669000148773193 3.5869998931884766,-14.211000442504883 C0.26499998569488525,-16.29400062561035 -3.1530001163482666,-18.41699981689453 -6.998000144958496,-19.18400001525879 C-10.170000076293945,-19.816999435424805 -13.628999710083008,-19.55299949645996 -16.525999069213867,-20.85700035095215 C-10.119000434875488,-30.865999221801758 -15.854000091552734,-44.50899887084961 -27.204999923706055,-47.47999954223633 C-27.788999557495117,-46.470001220703125 -28.371999740600586,-45.45899963378906 -28.95599937438965,-44.448001861572266 C-23.865999221801758,-42.11899948120117 -21.22599983215332,-35.513999938964844 -23.308000564575195,-30.316999435424805 C-25.389999389648438,-25.1200008392334 -31.858999252319336,-22.166000366210938 -37.150001525878906,-23.9950008392334 C-42.439998626708984,-25.825000762939453 -45.70399856567383,-32.145999908447266 -44.13100051879883,-37.518001556396484 C-45.707000732421875,-36.8120002746582 -47.284000396728516,-36.108001708984375 -48.861000061035156,-35.402000427246094 C-52.869998931884766,-21.54599952697754 -40.176998138427734,-8.904999732971191 -26.32699966430664,-13.111000061035156 C-23.827999114990234,-10.121000289916992 -23.750999450683594,-5.9720001220703125 -22.64699935913086,-2.2330000400543213 C-21.500999450683594,1.503999948501587 -19.172000885009766,4.672999858856201 -16.888999938964844,7.75 C-6.433000087738037,21.843000411987305 0.6890000104904175,32.54800033569336 11.145000457763672,46.641998291015625 C14.109000205993652,48.41999816894531 16.381000518798828,47.23400115966797 17.368999481201172,44.36899948120117 C12.093999862670898,27.06399917602539 -10.937999725341797,7.326000213623047 -23.458999633789062,-14.277000427246094 C-21.53700065612793,-15.234000205993652 -19.86199951171875,-16.631999969482422 -18.448999404907227,-18.236000061035156 C4.323999881744385,-7.301000118255615 25.614999771118164,6.714000225067139 44.66400146484375,23.308000564575195 C49.44300079345703,21.97599983215332 50.233001708984375,18.815000534057617 49.22800064086914,14.413999557495117z"/></g><g opacity="1" transform="matrix(1,0,0,1,587.60302734375,394.5570068359375)"><path fill="rgb(232,170,155)" fill-opacity="1" d=" M94.95899963378906,-17.016000747680664 C88.06900024414062,-21.797000885009766 78.69400024414062,-18.474000930786133 71.04499816894531,-15.03499984741211 C51.72700119018555,-6.348999977111816 32.40999984741211,2.3369998931884766 13.093000411987305,11.022000312805176 C7.388999938964844,13.586999893188477 1.315999984741211,16.211999893188477 -4.888000011444092,15.428000450134277 C-21.454999923706055,12.218000411987305 -44.45399856567383,-11.777999877929688 -57.95800018310547,-24.31599998474121 C-60.70899963378906,-27.405000686645508 -63.459999084472656,-30.4950008392334 -66.21099853515625,-33.58399963378906 C-66.66200256347656,-36.17900085449219 -67.0739974975586,-38.77199935913086 -68.5469970703125,-41.04199981689453 C-69.00399780273438,-42.61399841308594 -69.5979995727539,-44.13100051879883 -70.5270004272461,-45.47100067138672 C-72.36699676513672,-47.891998291015625 -74.77799987792969,-49.959999084472656 -75.79199981689453,-52.930999755859375 C-77.01799774169922,-56.87699890136719 -78.21099853515625,-60.71200180053711 -82.7490005493164,-61.766998291015625 C-83.46399688720703,-61.935001373291016 -84.44300079345703,-61.85100173950195 -84.62799835205078,-61.13999938964844 C-84.70800018310547,-60.83700180053711 -84.5999984741211,-60.516998291015625 -84.47899627685547,-60.22700119018555 C-83.85700225830078,-58.72999954223633 -82.8759994506836,-57.40999984741211 -82.197998046875,-55.9379997253418 C-80.91999816894531,-53.27399826049805 -80.91500091552734,-50.229000091552734 -81.61699676513672,-47.40599822998047 C-84.43599700927734,-48.106998443603516 -86.63500213623047,-49.400001525878906 -88.32499694824219,-51.70899963378906 C-85.93299865722656,-52.176998138427734 -85.43499755859375,-55.01599884033203 -87.3759994506836,-56.448001861572266 C-88.30899810791016,-57.154998779296875 -89.5250015258789,-57.375999450683594 -90.69499969482422,-57.39899826049805 C-93.05799865722656,-57.50299835205078 -98.78900146484375,-56.141998291015625 -98.6520004272461,-53.172000885009766 C-98.51399993896484,-52.35100173950195 -97.74500274658203,-51.87200164794922 -96.94100189208984,-51.564998626708984 C-96.45999908447266,-50.67599868774414 -96.02999877929688,-49.750999450683594 -95.64800262451172,-48.80500030517578 C-98.68800354003906,-48.09600067138672 -102.95600128173828,-44.020999908447266 -99.39299774169922,-41.375 C-102.32599639892578,-39.20899963378906 -100.5009994506836,-34.62900161743164 -97.01300048828125,-34.56800079345703 C-98.87100219726562,-33.099998474121094 -98.36399841308594,-30.631000518798828 -97.56999969482422,-28.638999938964844 C-96.96099853515625,-26.958999633789062 -96.31900024414062,-25.226999282836914 -95.08599853515625,-23.933000564575195 C-93.84400177001953,-22.6299991607666 -92.12999725341797,-21.905000686645508 -90.46700286865234,-21.21500015258789 C-88.072998046875,-20.222000122070312 -85.68000030517578,-19.22800064086914 -83.28600311279297,-18.235000610351562 C-81.61199951171875,-17.56399917602539 -79.83200073242188,-16.770999908447266 -78.0260009765625,-17.03499984741211 C-64.6520004272461,4.914999961853027 -26.895000457763672,56.80799865722656 -4.394999980926514,61.73500061035156 C-0.5120000243186951,62.198001861572266 3.365999937057495,61.05699920654297 7.0960001945495605,59.88199996948242 C24.134000778198242,54.51599884033203 40.8650016784668,48.17499923706055 57.180999755859375,40.9010009765625 C74.0719985961914,33.525001525878906 92.2760009765625,23.479999542236328 99.1449966430664,5.373000144958496 C102.01899719238281,-2.2920000553131104 101.68399810791016,-12.348999977111816 94.95899963378906,-17.016000747680664z"/></g></g><g transform="matrix(1,0,0,1,0,0)" opacity="1" style="display: block;"><g opacity="1" transform="matrix(1,0,0,1,689.8809814453125,895.1409912109375)"><path fill="rgb(19,76,76)" fill-opacity="1" d=" M32.3390007019043,17.167999267578125 C34.06100082397461,12.08899974822998 31.990999221801758,3.6619999408721924 31.198999404907227,-1.6540000438690186 C30.290000915527344,-7.755000114440918 29.764999389648438,-11.668999671936035 30.25,-17.062999725341797 C22.68400001525879,-17.336000442504883 10.218000411987305,-16.895000457763672 2.6519999504089355,-17.167999267578125 C4.015999794006348,-12.272000312805176 0.7149999737739563,-7.0920000076293945 -3.6029999256134033,-4.410999774932861 C-7.921000003814697,-1.7300000190734863 -13.083000183105469,-0.8790000081062317 -18.006000518798828,0.38199999928474426 C-26.3799991607666,2.3380000591278076 -35.20600128173828,7.335000038146973 -32.512001037597656,17.167999267578125 C-32.512001037597656,17.167999267578125 32.3390007019043,17.167999267578125 32.3390007019043,17.167999267578125z"/></g><g opacity="1" transform="matrix(1,0,0,1,665.916015625,712.3619995117188)"><path fill="rgb(10,91,91)" fill-opacity="1" d=" M57.04499816894531,168.20799255371094 C46.91999816894531,168.01300048828125 33.095001220703125,169.5709991455078 23.69099998474121,168.08999633789062 C-19.08799934387207,52.86800003051758 -68.98400115966797,-31.70199966430664 -54.48400115966797,-161.28799438476562 C-30.902999877929688,-163.77099609375 -7.321000099182129,-166.25399780273438 16.260000228881836,-168.73599243164062 C23.63800048828125,-121.13700103759766 13.302000045776367,-69.93800354003906 16.66900062561035,-21.933000564575195 C21.2189998626709,42.935001373291016 54.551998138427734,103.23999786376953 57.04499816894531,168.20799255371094z"/></g><g opacity="1" transform="matrix(1,0,0,1,598.4949951171875,906.5640258789062)"><path fill="rgb(19,76,76)" fill-opacity="1" d=" M32.3390007019043,17.167999267578125 C34.06100082397461,12.08899974822998 31.990999221801758,3.6619999408721924 31.198999404907227,-1.6540000438690186 C30.290000915527344,-7.755000114440918 29.766000747680664,-11.668999671936035 30.25,-17.062999725341797 C22.68400001525879,-17.336000442504883 10.218000411987305,-16.895000457763672 2.6519999504089355,-17.167999267578125 C4.015999794006348,-12.272000312805176 0.7149999737739563,-7.0920000076293945 -3.6029999256134033,-4.410999774932861 C-7.921000003814697,-1.7300000190734863 -13.081999778747559,-0.8790000081062317 -18.006000518798828,0.38199999928474426 C-26.3799991607666,2.3380000591278076 -35.20399856567383,7.335000038146973 -32.512001037597656,17.167999267578125 C-32.512001037597656,17.167999267578125 32.3390007019043,17.167999267578125 32.3390007019043,17.167999267578125z"/></g><g opacity="1" transform="matrix(1,0,0,1,631,714.6409912109375)"><path fill="rgb(12,114,114)" fill-opacity="1" d=" M-38.23500061035156,-165.7530059814453 C-50.472999572753906,-50.138999938964844 -62.49399948120117,68.41000366210938 -31.43600082397461,180.80999755859375 C-17.959999084472656,179.56700134277344 -4.484000205993652,178.32400512695312 8.991999626159668,177.08099365234375 C2.0329999923706055,104.697998046875 -2.7290000915527344,36.58599853515625 18.454999923706055,-33.26499938964844 C32.20500183105469,-78.60700225830078 55.736000061035156,-129.24400329589844 50.34000015258789,-176.14599609375 C23.297000885009766,-177.7010040283203 -3.746000051498413,-179.25599670410156 -30.788000106811523,-180.80999755859375 C-30.788000106811523,-180.80999755859375 -38.23500061035156,-165.7530059814453 -38.23500061035156,-165.7530059814453z"/></g><g opacity="1" transform="matrix(1,0,0,1,655.6430053710938,362.3190002441406)"><path fill="rgb(242,177,162)" fill-opacity="1" d=" M24.722999572753906,12.786999702453613 C17.322999954223633,2.7360000610351562 12.684000015258789,-9.32800006866455 11.444000244140625,-21.74799919128418 C1.1150000095367432,-17.819000244140625 -9.755000114440918,-15.314000129699707 -20.761999130249023,-14.326000213623047 C-20.735000610351562,-2.2039999961853027 -22.06599998474121,9.920999526977539 -24.722999572753906,21.74799919128418 C-8.579999923706055,17.18199920654297 8.005000114440918,14.177000045776367 24.722999572753906,12.786999702453613z"/></g><g opacity="1" transform="matrix(1,0,0,1,648.9639892578125,318.7149963378906)"><path fill="rgb(242,177,162)" fill-opacity="1" d=" M-28.18899917602539,32.81399917602539 C-10.923999786376953,35.935001373291016 9.892999649047852,33.02199935913086 23.847000122070312,22.05500030517578 C32.395999908447266,14.597999572753906 41.994998931884766,3.7200000286102295 40.77299880981445,-8.467000007629395 C38.53300094604492,-30.81399917602539 8.717000007629395,-38.84700012207031 -9.39900016784668,-31.142000198364258 C-27.739999771118164,-23.06100082397461 -36.77000045776367,-2.882999897003174 -40.43899917602539,15.821999549865723 C-42.41699981689453,25.10099983215332 -37.61600112915039,31.46500015258789 -28.18899917602539,32.81399917602539z"/></g><g opacity="1" transform="matrix(1,0,0,1,662.5900268554688,317.3559875488281)"><path fill="rgb(16,47,48)" fill-opacity="1" d=" M22.597999572753906,-16.256999969482422 C13.555000305175781,-34.93000030517578 -14.321999549865723,-41.4010009765625 -29.68400001525879,-26.55900001525879 C-22.204999923706055,-22.965999603271484 -18.92799949645996,-14.12600040435791 -18.274999618530273,-6.2270002365112305 C-14.147000312805176,-9.164999961853027 -9.317000389099121,-4.868000030517578 -9.444999694824219,-0.3659999966621399 C-9.496000289916992,4.461999893188477 -12.866999626159668,9.17300033569336 -17.073999404907227,11.406000137329102 C-16.214000701904297,21.714000701904297 -9.574999809265137,31.354999542236328 0.3630000054836273,34.74599838256836 C8.25,28.52199935913086 23.597000122070312,15.725000381469727 28.049999237060547,6.718999862670898 C32.507999420166016,-2.2980000972747803 26.892000198364258,-7.160999774932861 22.597999572753906,-16.256999969482422z"/></g><g opacity="1" transform="matrix(1,0,0,1,663.5650024414062,307.08099365234375)"><path fill="rgb(158,110,62)" fill-opacity="1" d=" M5.561999797821045,-26.540000915527344 C15.689000129699707,-20.700000762939453 29.841999053955078,-10.184000015258789 33.28200149536133,1.3639999628067017 C35.34199905395508,13.168000221252441 23.41900062561035,20.96299934387207 18.604999542236328,30.430999755859375 C1.878999948501587,14.289999961853027 -9.95199966430664,-9.852999687194824 -33.51900100708008,-16.957000732421875 C-20.44099998474121,-25.25200080871582 -10.552000045776367,-36.46099853515625 5.561999797821045,-26.540000915527344z"/></g><g opacity="1" transform="matrix(1,0,0,1,628.7780151367188,285.3070068359375)"><path fill="rgb(243,170,96)" fill-opacity="1" d=" M-0.3050000071525574,-5.044000148773193 C-6.019000053405762,-7.052000045776367 -11.536999702453613,-9.836000442504883 -16.05699920654297,-13.869000434875488 C-16.8799991607666,-14.60200023651123 -17.86199951171875,-15.435999870300293 -18.940000534057617,-15.206999778747559 C-19.89900016784668,-15.003000259399414 -20.479999542236328,-14.029000282287598 -20.805999755859375,-13.104000091552734 C-22.58799934387207,-8.03600025177002 -19.948999404907227,-2.24399995803833 -15.807000160217285,1.1770000457763672 C-11.664999961853027,4.5970001220703125 -6.315999984741211,6.13100004196167 -1.097000002861023,7.39900016784668 C6.494999885559082,9.244999885559082 13.633999824523926,14.163000106811523 21.371999740600586,15.244999885559082 C19.198999404907227,0.37299999594688416 12.213000297546387,-1.0499999523162842 -0.3050000071525574,-5.044000148773193z"/></g><g opacity="1" transform="matrix(1,0,0,1,640.0079956054688,468.02301025390625)"><path fill="rgb(243,170,96)" fill-opacity="1" d=" M19.562999725341797,-100.00800323486328 C-13.359999656677246,-97.98999786376953 -31.829999923706055,-69.7979965209961 -39.275001525878906,-40.25199890136719 C-50.24800109863281,-3.0190000534057617 -55.07099914550781,36.018001556396484 -53.49300003051758,74.8030014038086 C-53.25400161743164,80.6709976196289 -52.731998443603516,86.9229965209961 -49.14799880981445,91.5770034790039 C-38.69200134277344,107.76000213623047 35.01900100708008,96.6719970703125 53.7859992980957,93.12999725341797 C45.1879997253418,54.83000183105469 43.45800018310547,14.99899959564209 48.70199966430664,-23.902000427246094 C52.60300064086914,-52.77299880981445 64.88800048828125,-102.99600219726562 19.562999725341797,-100.00800323486328z"/></g><g opacity="1" transform="matrix(1,0,0,1,639.9240112304688,451.71600341796875)"><path fill="rgb(187,131,74)" fill-opacity="1" d=" M21.268999099731445,-58.354000091552734 C38.957000732421875,-27.0310001373291 11.449000358581543,39.59600067138672 -15.78499984741211,60.2760009765625 C-20.77400016784668,64.56300354003906 -25.517000198364258,63.1510009765625 -25.823999404907227,56.284000396728516 C-29.702999114990234,29.058000564575195 -23.47599983215332,-50.823001861572266 5.361999988555908,-61.869998931884766 C10.824000358581543,-63.65399932861328 17.434999465942383,-62.63399887084961 21.268999099731445,-58.354000091552734z"/></g><g opacity="1" transform="matrix(1,0,0,1,644.218017578125,422.4679870605469)"><path fill="rgb(10,95,95)" fill-opacity="1" d=" M-39.9630012512207,53.46200180053711 C-44.37200164794922,24.058000564575195 -13.845999717712402,-85.53500366210938 26.676000595092773,-36.518001556396484 C37.106998443603516,-23.84600067138672 43.91899871826172,-8.227999687194824 46.11199951171875,8.038000106811523 C51.49800109863281,-11.803000450134277 40.44499969482422,-32.04899978637695 25.63800048828125,-44.89099884033203 C15.810999870300293,-54.12900161743164 5.298999786376953,-56.79800033569336 -5.978000164031982,-48.41600036621094 C-38.224998474121094,-26.340999603271484 -45.520999908447266,15.782999992370605 -47.49800109863281,52.36600112915039 C-44.98699951171875,52.73099899291992 -42.4739990234375,53.09700012207031 -39.9630012512207,53.46200180053711z"/></g><g opacity="1" transform="matrix(1,0,0,1,666.7130126953125,515.0679931640625)"><path fill="rgb(10,95,95)" fill-opacity="1" d=" M19.645999908447266,-20.261999130249023 C21.3700008392334,-30.33099937438965 20.940000534057617,-40.624000549316406 20.86400032043457,-50.8390007019043 C11.276000022888184,-16.270000457763672 -0.6230000257492065,18.222999572753906 -20.965999603271484,47.77199935913086 C-17.69700050354004,48.79399871826172 -14.428000450134277,49.81700134277344 -11.159000396728516,50.8390007019043 C0.7139999866485596,28.040000915527344 14.28499984741211,5.093999862670898 19.645999908447266,-20.261999130249023z"/></g><g opacity="1" transform="matrix(1,0,0,1,639.822021484375,500.864990234375)"><path fill="rgb(12,114,114)" fill-opacity="1" d=" M-17.91699981689453,39.928001403808594 C-36.60900115966797,21.236000061035156 -17.91699981689453,-28.61199951171875 -24.148000717163086,-65.99700164794922 C-24.148000717163086,-71.21099853515625 -32.88100051879883,-59.018001556396484 -43.03200149536133,-58.5369987487793 C-49.19300079345703,-36.494998931884766 -60.57500076293945,40.624000549316406 -48.96200180053711,58.736000061035156 C-38.5099983215332,74.90599822998047 35.18000030517578,63.840999603271484 53.972999572753906,60.28799819946289 C53.176998138427734,56.74399948120117 52.50199890136719,53.17399978637695 51.82400131225586,49.60599899291992 C25.841999053955078,52.215999603271484 1.4910000562667847,51.018001556396484 -17.91699981689453,39.928001403808594z"/></g><g opacity="1" transform="matrix(1,0,0,1,506.5539855957031,794.3400268554688)"><path fill="rgb(153,108,61)" fill-opacity="1" d=" M65.87100219726562,28.68199920654297 C65.87100219726562,28.68199920654297 -65.87100219726562,28.68199920654297 -65.87100219726562,28.68199920654297 C-65.87100219726562,28.68199920654297 -65.87100219726562,-28.68199920654297 -65.87100219726562,-28.68199920654297 C-65.87100219726562,-28.68199920654297 65.87100219726562,-28.68199920654297 65.87100219726562,-28.68199920654297 C65.87100219726562,-28.68199920654297 65.87100219726562,28.68199920654297 65.87100219726562,28.68199920654297z M-59.54800033569336,22.358999252319336 C-59.54800033569336,22.358999252319336 59.54800033569336,22.358999252319336 59.54800033569336,22.358999252319336 C59.54800033569336,22.358999252319336 59.54800033569336,-22.358999252319336 59.54800033569336,-22.358999252319336 C59.54800033569336,-22.358999252319336 -59.54800033569336,-22.358999252319336 -59.54800033569336,-22.358999252319336 C-59.54800033569336,-22.358999252319336 -59.54800033569336,22.358999252319336 -59.54800033569336,22.358999252319336z"/></g><g opacity="1" transform="matrix(1,0,0,1,507.3429870605469,830.2420043945312)"><path fill="rgb(243,170,96)" fill-opacity="1" d=" M56.207000732421875,-37.430999755859375 C56.207000732421875,-37.430999755859375 -56.207000732421875,-37.430999755859375 -56.207000732421875,-37.430999755859375 C-56.207000732421875,-37.430999755859375 -71.68900299072266,-5.0320000648498535 -71.68900299072266,-5.0320000648498535 C-71.68900299072266,-5.0320000648498535 -71.68900299072266,37.430999755859375 -71.68900299072266,37.430999755859375 C-71.68900299072266,37.430999755859375 71.68900299072266,37.430999755859375 71.68900299072266,37.430999755859375 C71.68900299072266,37.430999755859375 71.68900299072266,-5.0320000648498535 71.68900299072266,-5.0320000648498535 C71.68900299072266,-5.0320000648498535 56.207000732421875,-37.430999755859375 56.207000732421875,-37.430999755859375z"/></g><g opacity="1" transform="matrix(1,0,0,1,508.1929931640625,768.8200073242188)"><path fill="rgb(243,170,96)" fill-opacity="1" d=" M40.6510009765625,7.656000137329102 C40.6510009765625,7.656000137329102 -40.6510009765625,7.656000137329102 -40.6510009765625,7.656000137329102 C-40.6510009765625,7.656000137329102 -40.6510009765625,-7.656000137329102 -40.6510009765625,-7.656000137329102 C-40.6510009765625,-7.656000137329102 40.6510009765625,-7.656000137329102 40.6510009765625,-7.656000137329102 C40.6510009765625,-7.656000137329102 40.6510009765625,7.656000137329102 40.6510009765625,7.656000137329102z"/></g><g opacity="1" transform="matrix(1,0,0,1,508.3500061035156,825.9290161132812)"><path fill="rgb(153,108,61)" fill-opacity="1" d=" M66.58599853515625,1.777999997138977 C66.58599853515625,1.777999997138977 -66.58599853515625,1.777999997138977 -66.58599853515625,1.777999997138977 C-66.58599853515625,1.777999997138977 -66.58599853515625,-1.777999997138977 -66.58599853515625,-1.777999997138977 C-66.58599853515625,-1.777999997138977 66.58599853515625,-1.777999997138977 66.58599853515625,-1.777999997138977 C66.58599853515625,-1.777999997138977 66.58599853515625,1.777999997138977 66.58599853515625,1.777999997138977z"/></g><g opacity="1" transform="matrix(1,0,0,1,508.5469970703125,832.3179931640625)"><path fill="rgb(153,108,61)" fill-opacity="1" d=" M4.611999988555908,21.996999740600586 C4.611999988555908,21.996999740600586 -4.609000205993652,21.996999740600586 -4.609000205993652,21.996999740600586 C-8.822999954223633,21.996999740600586 -12.25,18.570999145507812 -12.25,14.359000205993652 C-12.25,14.359000205993652 -12.25,-14.359000205993652 -12.25,-14.359000205993652 C-12.25,-18.570999145507812 -8.822999954223633,-21.996999740600586 -4.609000205993652,-21.996999740600586 C-4.609000205993652,-21.996999740600586 4.611999988555908,-21.996999740600586 4.611999988555908,-21.996999740600586 C8.822999954223633,-21.996999740600586 12.25,-18.570999145507812 12.25,-14.359000205993652 C12.25,-14.359000205993652 12.25,14.359000205993652 12.25,14.359000205993652 C12.25,18.570999145507812 8.822999954223633,21.996999740600586 4.611999988555908,21.996999740600586z M-4.609000205993652,-15.673999786376953 C-5.334000110626221,-15.673999786376953 -5.927999973297119,-15.085000038146973 -5.927999973297119,-14.359000205993652 C-5.927999973297119,-14.359000205993652 -5.927999973297119,14.359000205993652 -5.927999973297119,14.359000205993652 C-5.927999973297119,15.085000038146973 -5.334000110626221,15.673999786376953 -4.609000205993652,15.673999786376953 C-4.609000205993652,15.673999786376953 4.611999988555908,15.673999786376953 4.611999988555908,15.673999786376953 C5.3379998207092285,15.673999786376953 5.927999973297119,15.085000038146973 5.927999973297119,14.359000205993652 C5.927999973297119,14.359000205993652 5.927999973297119,-14.359000205993652 5.927999973297119,-14.359000205993652 C5.927999973297119,-15.085000038146973 5.3379998207092285,-15.673999786376953 4.611999988555908,-15.673999786376953 C4.611999988555908,-15.673999786376953 -4.609000205993652,-15.673999786376953 -4.609000205993652,-15.673999786376953z"/></g><g opacity="1" transform="matrix(1,0,0,1,624.197021484375,311.4079895019531)"><path fill="rgb(5,33,70)" fill-opacity="1" d=" M-2.1040000915527344,0.9300000071525574 C-2.0799999237060547,-0.9240000247955322 -0.7200000286102295,-3.828000068664551 1.4470000267028809,-2.8610000610351562 C1.7899999618530273,-2.7090001106262207 2.114000082015991,-2.4089999198913574 2.11299991607666,-1.9550000429153442 C2.385999917984009,-0.27000001072883606 1.5980000495910645,1.8839999437332153 0.17599999904632568,2.8389999866485596 C-1.3660000562667847,3.496999979019165 -2.444999933242798,2.569999933242798 -2.1040000915527344,0.9300000071525574z"/></g><g opacity="1" transform="matrix(1,0,0,1,629.0880126953125,304.7359924316406)"><path fill="rgb(5,33,70)" fill-opacity="1" d=" M-3.7149999141693115,-3.7339999675750732 C0.6990000009536743,-5.940999984741211 5,0.7170000076293945 4.567999839782715,4.052000045776367 C4.349999904632568,4.2870001792907715 3.934999942779541,4.138000011444092 3.6549999713897705,3.9670000076293945 C1.4639999866485596,2.631999969482422 -0.3799999952316284,0.828000009059906 -2.690000057220459,-0.32499998807907104 C-4.25600004196167,-0.7760000228881836 -5.513999938964844,-2.6540000438690186 -3.7149999141693115,-3.7339999675750732z"/></g></g><g transform="matrix(0.9999937415122986,-0.003542644437402487,0.003542644437402487,0.9999937415122986,-1.42120361328125,2.292266845703125)" opacity="1" style="display: block;"><g opacity="1" transform="matrix(1,0,0,1,634.1699829101562,414.5799865722656)"><path fill="rgb(243,170,96)" fill-opacity="1" d=" M30.58300018310547,-23.687999725341797 C29.2450008392334,-29.39699935913086 25.434999465942383,-34.819000244140625 19.878000259399414,-36.691001892089844 C-2.2090001106262207,-43.05099868774414 -21.39900016784668,-0.05400000140070915 -31.011999130249023,15.543999671936035 C-16.402000427246094,19.5939998626709 -1.9930000305175781,27.51099967956543 10.961000442504883,37.327999114990234 C22.117000579833984,19.975000381469727 33.36800003051758,-1.9809999465942383 30.58300018310547,-23.687999725341797z"/></g><g opacity="1" transform="matrix(1,0,0,1,559.3159790039062,496.74700927734375)"><path fill="rgb(242,177,162)" fill-opacity="1" d=" M43.84199905395508,-66.62300109863281 C23.69099998474121,-24.395999908447266 -8.097000122070312,3.0309998989105225 -44.76900100708008,34.4900016784668 C-47.90599822998047,33.356998443603516 -56.404998779296875,30.551000595092773 -57.87200164794922,34.77899932861328 C-60.7130012512207,35.0620002746582 -62.91600036621094,32.244998931884766 -65.71199798583984,32.25299835205078 C-67.10399627685547,32.25899887084961 -68.5989990234375,33.29100036621094 -68.55899810791016,34.68199920654297 C-71.4520034790039,31.784000396728516 -74.35099792480469,36.479000091552734 -76.2770004272461,38.35900115966797 C-77.3010025024414,39.20199966430664 -78.5780029296875,39.6870002746582 -79.61699676513672,40.51100158691406 C-82.55000305175781,42.8380012512207 -82.99400329589844,47.30500030517578 -85.81500244140625,49.76599884033203 C-83.94400024414062,51.191001892089844 -80.99099731445312,50.902000427246094 -79.43199920654297,49.13999938964844 C-77.87899780273438,46.667999267578125 -76.58799743652344,45.03200149536133 -73.37899780273438,45.27000045776367 C-69.52400207519531,45.08700180053711 -64.6760025024414,45.28300094604492 -62.4630012512207,48.95399856567383 C-61.444000244140625,50.70000076293945 -61.52899932861328,53.154998779296875 -62.99100112915039,54.54999923706055 C-64.5459976196289,56.034000396728516 -66.95999908447266,55.930999755859375 -69.08499908447266,56.25699996948242 C-72.2239990234375,56.737998962402344 -75.16899871826172,58.39099884033203 -77.21399688720703,60.82099914550781 C-79.48799896240234,63.1619987487793 -78.91000366210938,67.3280029296875 -75.12200164794922,66.52100372314453 C-74.10900115966797,66.2969970703125 -71.44599914550781,66.0989990234375 -70.58000183105469,65.5270004272461 C-68.23600006103516,63.97700119018555 -68.45999908447266,62.78799819946289 -65.83000183105469,61.79499816894531 C-63.20199966430664,60.801998138427734 -57.40599822998047,60.90599822998047 -54.86600112915039,62.106998443603516 C-54.86600112915039,62.106998443603516 -47.422000885009766,67.06999969482422 -39.720001220703125,57.209999084472656 C5.2210001945495605,28.80299949645996 55.38399887084961,-0.08900000154972076 85.81500244140625,-44.8390007019043 C72.86100006103516,-54.65599822998047 58.45199966430664,-62.573001861572266 43.84199905395508,-66.62300109863281z"/></g></g></g></svg>